<?xml version="1.0" standalone="no"?>
<!DOCTYPE svg PUBLIC "-//W3C//DTD SVG 20010904//EN"
 "http://www.w3.org/TR/2001/REC-SVG-20010904/DTD/svg10.dtd">
<svg version="1.0" xmlns="http://www.w3.org/2000/svg"
 width="328.000000pt" height="328.000000pt" viewBox="0 0 328.000000 328.000000"
 preserveAspectRatio="xMidYMid meet">
<metadata>
Created by potrace 1.14, written by Peter Selinger 2001-2017
</metadata>
<g transform="translate(0.000000,328.000000) scale(0.100000,-0.100000)"
fill="#000000" stroke="none">
<path d="M1483 3104 c-3 -9 1 -31 10 -48 8 -17 18 -47 21 -66 2 -19 8 -48 12
-64 9 -38 -15 -58 -57 -46 -39 11 -203 10 -259 -1 -25 -6 -54 -11 -65 -13 -21
-4 -92 -34 -165 -69 -91 -44 -197 -122 -272 -198 -73 -75 -174 -206 -166 -214
2 -2 40 16 83 42 92 53 138 61 143 25 2 -15 -6 -33 -23 -50 -93 -92 -192 -309
-213 -464 -13 -100 -4 -369 13 -386 6 -6 35 18 35 30 0 39 282 348 349 382 23
13 31 13 46 2 15 -11 17 -23 12 -87 -3 -41 -9 -82 -11 -90 -3 -7 -8 -32 -10
-54 -3 -22 -10 -68 -17 -102 -15 -76 -5 -117 48 -195 30 -44 133 -152 185
-193 33 -26 131 -87 175 -109 74 -37 186 -74 210 -70 12 2 52 20 88 39 53 28
70 33 86 25 10 -6 19 -15 19 -20 0 -41 -76 -167 -133 -221 -35 -34 -118 -77
-159 -84 -33 -6 -39 -11 -47 -43 -12 -51 -20 -79 -36 -139 -8 -29 -17 -65 -20
-80 -3 -16 -7 -37 -10 -48 -2 -11 -21 -99 -40 -195 -20 -96 -38 -184 -41 -195
-2 -11 -7 -36 -10 -55 -3 -19 -8 -38 -10 -42 -2 -3 333 -6 745 -7 572 0 750 3
753 12 2 7 3 232 3 502 l0 490 -301 2 c-168 1 -312 7 -327 12 -14 6 -33 20
-41 33 -55 85 -74 342 -29 390 25 26 68 34 89 17 8 -7 39 -10 78 -7 121 7 186
79 181 200 -3 72 -39 130 -100 163 -36 19 -40 24 -37 54 4 49 158 348 269 524
24 37 43 69 43 71 0 2 -37 14 -82 26 -221 60 -390 133 -563 243 -129 83 -183
128 -337 280 -85 85 -110 104 -115 91z"/>
</g>
</svg>
